<svg width="188" height="30" viewBox="0 0 188 30" fill="none" xmlns="http://www.w3.org/2000/svg">
<path d="M0 14.7562C0 7.80006 0 4.32199 2.161 2.161C4.32199 0 7.80006 0 14.7562 0C21.7124 0 25.1904 0 27.3515 2.161C29.5124 4.32199 29.5124 7.80006 29.5124 14.7562C29.5124 21.7124 29.5124 25.1904 27.3515 27.3515C25.1904 29.5124 21.7124 29.5124 14.7562 29.5124C7.80006 29.5124 4.32199 29.5124 2.161 27.3515C0 25.1904 0 21.7124 0 14.7562Z" fill="#2C2C2C"/>
<path fill-rule="evenodd" clip-rule="evenodd" d="M14.6875 0C7.77713 2.34302e-05 4.31487 0.00712734 2.161 2.161C0 4.32199 0 7.80006 0 14.7562C0 21.7124 0 25.1904 2.161 27.3515C4.31487 29.5053 7.77713 29.5124 14.6875 29.5124V0Z" fill="#FCCA19"/>
<path d="M17.7097 19.1836C18.1172 19.1836 18.4549 19.5172 18.374 19.9165C18.2309 20.6219 17.8834 21.2757 17.367 21.7921C16.6752 22.484 15.7369 22.8726 14.7584 22.8726C13.78 22.8726 12.8418 22.484 12.1499 21.7921C11.6334 21.2757 11.2859 20.6219 11.1429 19.9165C11.0619 19.5172 11.3997 19.1836 11.8072 19.1836H17.7097Z" fill="white"/>
<path d="M19.2586 13.1159C18.865 13.2214 18.624 13.6332 18.8235 13.9884C19.0336 14.3623 19.3241 14.6887 19.6776 14.942C20.2326 15.3396 20.9083 15.5326 21.5897 15.4879C22.271 15.4433 22.9157 15.1638 23.414 14.6971C23.9124 14.2303 24.2335 13.6052 24.3226 12.9282C24.4117 12.2513 24.2634 11.5644 23.9028 10.9846C23.5423 10.4048 22.9918 9.96793 22.3453 9.74843C21.6987 9.52893 20.9961 9.54044 20.3571 9.78097C19.9501 9.93414 19.585 10.1741 19.2853 10.4809C19.0006 10.7724 19.1269 11.2326 19.4797 11.4363L19.854 11.6524C20.4233 11.9811 20.311 12.834 19.6761 13.0041L19.2586 13.1159Z" fill="#FCCA19"/>
<path d="M10.2513 13.1159C10.645 13.2214 10.886 13.6332 10.6864 13.9884C10.4764 14.3623 10.1858 14.6887 9.83241 14.942C9.27742 15.3396 8.60166 15.5326 7.92037 15.4879C7.23902 15.4433 6.59425 15.1638 6.09591 14.6971C5.59757 14.2303 5.27648 13.6052 5.18736 12.9282C5.09824 12.2513 5.24659 11.5644 5.60716 10.9846C5.96771 10.4048 6.51816 9.96793 7.16471 9.74843C7.81125 9.52893 8.51394 9.54044 9.15296 9.78097C9.55986 9.93414 9.925 10.1741 10.2247 10.4809C10.5094 10.7724 10.3831 11.2326 10.0302 11.4363L9.65592 11.6524C9.0867 11.9811 9.19899 12.834 9.83388 13.0041L10.2513 13.1159Z" fill="white"/>
<path d="M40.1309 21.5353V7.01839H43.2831L47.9078 16.2263L52.4702 7.01839H55.6225V21.5353H52.968V11.5186L48.924 19.4615H46.8294L42.7854 11.5186V21.5353H40.1309Z" fill="#2C2C2C"/>
<path d="M64.0384 21.7842C62.9738 21.7842 62.013 21.5768 61.1558 21.162C60.2986 20.7334 59.6142 20.0905 59.1027 19.2333C58.6049 18.3762 58.3561 17.2908 58.3561 15.9774V7.01839H61.0106V15.9981C61.0106 17.1318 61.2802 17.9752 61.8194 18.5282C62.3724 19.0813 63.1328 19.3578 64.1006 19.3578C65.0546 19.3578 65.8081 19.0813 66.3611 18.5282C66.9142 17.9752 67.1907 17.1318 67.1907 15.9981V7.01839H69.8452V15.9774C69.8452 17.2908 69.5825 18.3762 69.0571 19.2333C68.5318 20.0905 67.8266 20.7334 66.9418 21.162C66.0708 21.5768 65.103 21.7842 64.0384 21.7842Z" fill="#2C2C2C"/>
<path d="M72.555 21.5353V7.01839H75.2095V19.4615H81.6384V21.5353H72.555Z" fill="#2C2C2C"/>
<path d="M84.9477 21.5353V9.15445H80.717V7.01839H91.8536V9.15445H87.6022V21.5353H84.9477Z" fill="#2C2C2C"/>
<path d="M93.82 21.5353V7.01839H96.4745V21.5353H93.82Z" fill="#2C2C2C"/>
<path d="M108.44 21.5353L103.131 7.01839H105.972L110.078 18.8186L114.205 7.01839H117.005L111.696 21.5353H108.44Z" fill="#898989"/>
<path d="M118.73 21.5353V7.01839H128.208V9.15445H121.385V13.1362H127.586V15.2101H121.385V19.3993H128.208V21.5353H118.73Z" fill="#898989"/>
<path d="M130.72 21.5353V7.01839H133.374L140.197 17.2425V7.01839H142.852V21.5353H140.197L133.374 11.332V21.5353H130.72Z" fill="#898989"/>
<path d="M145.666 21.5353V7.01839H150.623C152.323 7.01839 153.72 7.32256 154.812 7.93088C155.918 8.52539 156.734 9.36875 157.259 10.461C157.798 11.5394 158.068 12.8113 158.068 14.2769C158.068 15.7424 157.798 17.0212 157.259 18.1135C156.734 19.1919 155.918 20.0352 154.812 20.6436C153.72 21.2381 152.323 21.5353 150.623 21.5353H145.666ZM148.321 19.2541H150.498C151.715 19.2541 152.676 19.0605 153.381 18.6734C154.086 18.2725 154.591 17.7056 154.895 16.9729C155.199 16.2263 155.351 15.3276 155.351 14.2769C155.351 13.2399 155.199 12.3482 154.895 11.6016C154.591 10.855 154.086 10.2812 153.381 9.8803C152.676 9.47936 151.715 9.27889 150.498 9.27889H148.321V19.2541Z" fill="#898989"/>
<path d="M167.212 21.7842C165.76 21.7842 164.488 21.4662 163.396 20.8302C162.318 20.1942 161.468 19.3163 160.845 18.1964C160.237 17.0627 159.933 15.7562 159.933 14.2769C159.933 12.7975 160.237 11.4979 160.845 10.378C161.468 9.24432 162.318 8.35948 163.396 7.7235C164.488 7.08752 165.76 6.76953 167.212 6.76953C168.65 6.76953 169.915 7.08752 171.007 7.7235C172.099 8.35948 172.95 9.24432 173.558 10.378C174.166 11.4979 174.471 12.7975 174.471 14.2769C174.471 15.7562 174.166 17.0627 173.558 18.1964C172.95 19.3163 172.099 20.1942 171.007 20.8302C169.915 21.4662 168.65 21.7842 167.212 21.7842ZM167.212 19.3993C168.595 19.3993 169.694 18.943 170.51 18.0305C171.339 17.118 171.754 15.8668 171.754 14.2769C171.754 12.6869 171.339 11.4357 170.51 10.5232C169.694 9.6107 168.595 9.15445 167.212 9.15445C165.83 9.15445 164.724 9.6107 163.894 10.5232C163.064 11.4357 162.65 12.6869 162.65 14.2769C162.65 15.8668 163.064 17.118 163.894 18.0305C164.724 18.943 165.83 19.3993 167.212 19.3993Z" fill="#898989"/>
<path d="M176.814 21.5353V7.01839H182.144C183.305 7.01839 184.259 7.21886 185.006 7.61981C185.766 8.00693 186.333 8.53921 186.707 9.21667C187.08 9.8803 187.267 10.62 187.267 11.4357C187.267 12.3205 187.032 13.1293 186.561 13.8621C186.105 14.5948 185.386 15.1271 184.405 15.4589L187.412 21.5353H184.363L181.667 15.8115H179.469V21.5353H176.814ZM179.469 13.8621H181.978C182.863 13.8621 183.513 13.6478 183.928 13.2192C184.342 12.7906 184.55 12.2237 184.55 11.5186C184.55 10.8274 184.342 10.2743 183.928 9.85956C183.527 9.44479 182.87 9.23741 181.957 9.23741H179.469V13.8621Z" fill="#898989"/>
</svg>
