<svg width="55" height="33" viewBox="0 0 55 33" fill="none" xmlns="http://www.w3.org/2000/svg">
<path d="M54.9993 16.4997C54.9993 25.5533 47.6379 32.9993 38.4997 32.9993C29.446 32.9993 22 25.5533 22 16.4997C22 7.446 29.3614 0 38.415 0C47.6379 0 54.9993 7.446 54.9993 16.4997Z" fill="#F9B50B"/>
<path d="M32.9147 16.5843C32.9147 15.3997 32.7455 14.2151 32.5763 13.1151H22.4226C22.5072 12.5228 22.6765 12.0151 22.8457 11.3382H31.8993C31.7301 10.7459 31.4763 10.1536 31.2224 9.56134H23.5226C23.7764 8.96905 24.1149 8.46136 24.4533 7.78446H30.2917C29.9532 7.19216 29.5302 6.59986 29.0225 6.00757H25.8072C26.3148 5.41527 26.8225 4.90759 27.4994 4.3153C24.6226 1.60766 20.7303 0 16.415 0C7.446 0.253841 0 7.446 0 16.4997C0 25.5533 7.36139 32.9993 16.4997 32.9993C20.815 32.9993 24.6226 31.3071 27.584 28.684C28.1763 28.1763 28.684 27.584 29.2763 26.9071H25.8918C25.4687 26.3995 25.0456 25.8072 24.7072 25.2149H30.4609C30.7994 24.7072 31.1378 24.1149 31.3917 23.438H23.6918C23.438 22.9303 23.1841 22.338 23.0149 21.6611H32.0686C32.5763 20.138 32.9147 18.4458 32.9147 16.5843Z" fill="#C8191C"/>
<path d="M22.3372 20.7316L22.5911 19.2085C22.5065 19.2085 22.3372 19.2931 22.168 19.2931C21.5757 19.2931 21.4911 18.9547 21.5757 18.7855L22.0834 15.7394H23.0141L23.268 14.0471H22.4219L22.5911 13.0317H20.8142C20.8142 13.0317 19.7988 18.7855 19.7988 19.4624C19.7988 20.4777 20.3911 20.9854 21.2373 20.9854C21.7449 20.9854 22.168 20.8162 22.3372 20.7316Z" fill="white"/>
<path d="M22.9297 17.9367C22.9297 20.3905 24.622 20.9828 25.9758 20.9828C27.245 20.9828 27.8373 20.7289 27.8373 20.7289L28.1757 19.0367C28.1757 19.0367 27.245 19.4597 26.3142 19.4597C24.3681 19.4597 24.7066 18.0213 24.7066 18.0213H28.2603C28.2603 18.0213 28.5142 16.9213 28.5142 16.4136C28.5142 15.3137 27.9219 13.8752 25.9758 13.8752C24.2835 13.7906 22.9297 15.7367 22.9297 17.9367ZM25.9758 15.3983C26.9065 15.3983 26.7373 16.4982 26.7373 16.5829H24.7912C24.8758 16.4982 25.045 15.3983 25.9758 15.3983Z" fill="white"/>
<path d="M37.0613 20.7305L37.3997 18.7844C37.3997 18.7844 36.5536 19.2075 35.8767 19.2075C34.6921 19.2075 34.0998 18.2768 34.0998 17.1768C34.0998 15.0614 35.1151 13.9615 36.3844 13.9615C37.2305 13.9615 37.992 14.4691 37.992 14.4691L38.2459 12.6076C38.2459 12.6076 37.2305 12.1846 36.2151 12.1846C34.1844 12.1846 32.2383 13.9615 32.2383 17.2614C32.2383 19.4613 33.2536 20.8998 35.369 20.8998C36.1305 20.9844 37.0613 20.7305 37.0613 20.7305Z" fill="white"/>
<path d="M12.7784 13.793C11.5939 13.793 10.6631 14.1314 10.6631 14.1314L10.4093 15.6545C10.4093 15.6545 11.1708 15.316 12.3554 15.316C12.9477 15.316 13.4554 15.4006 13.4554 15.9083C13.4554 16.2468 13.3707 16.3314 13.3707 16.3314H12.6092C11.0862 16.3314 9.47852 16.9237 9.47852 18.9544C9.47852 20.5621 10.4939 20.9005 11.1708 20.9005C12.3554 20.9005 12.9477 20.139 13.0323 20.139L12.9477 20.8159H14.3861L15.063 15.9929C15.063 13.8776 13.3707 13.793 12.7784 13.793ZM13.1169 17.6852C13.1169 17.939 12.9477 19.3775 11.9323 19.3775C11.4246 19.3775 11.2554 18.9544 11.2554 18.7006C11.2554 18.2775 11.5092 17.6852 12.8631 17.6852C13.0323 17.6852 13.1169 17.6852 13.1169 17.6852Z" fill="white"/>
<path d="M16.7521 20.8992C17.1751 20.8992 19.3751 20.9838 19.3751 18.6146C19.3751 16.4147 17.2597 16.8377 17.2597 15.9916C17.2597 15.5685 17.5982 15.3993 18.1905 15.3993C18.4443 15.3993 19.3751 15.4839 19.3751 15.4839L19.6289 13.8763C19.6289 13.8763 19.0366 13.707 17.9367 13.707C16.6674 13.707 15.3136 14.2147 15.3136 15.9916C15.3136 18.0223 17.5136 17.8531 17.5136 18.6146C17.5136 19.1223 16.9213 19.2069 16.4982 19.2069C15.7367 19.2069 14.8906 18.9531 14.8906 18.9531L14.6367 20.5607C14.8059 20.73 15.3136 20.8992 16.7521 20.8992Z" fill="white"/>
<path d="M51.6133 12.4395L51.2748 14.8086C51.2748 14.8086 50.5979 13.9625 49.5826 13.9625C47.9749 13.9625 46.6211 15.9086 46.6211 18.1932C46.6211 19.6316 47.298 21.07 48.8211 21.07C49.8364 21.07 50.5133 20.3931 50.5133 20.3931L50.4287 20.9854H52.2056L53.4748 12.6087L51.6133 12.4395ZM50.7672 17.0086C50.7672 17.9393 50.3441 19.2085 49.3287 19.2085C48.7364 19.2085 48.398 18.7009 48.398 17.7701C48.398 16.3317 48.9903 15.4855 49.8364 15.4855C50.4287 15.5702 50.7672 15.9932 50.7672 17.0086Z" fill="white"/>
<path d="M3.21376 20.8162L4.22912 14.5548L4.39835 20.8162H5.58294L7.86751 14.5548L6.93676 20.8162H8.79826L10.2367 12.4395H7.35982L5.58294 17.6009L5.49832 12.4395H2.95992L1.52148 20.8162H3.21376Z" fill="white"/>
<path d="M30.2899 20.8156C30.7975 17.9388 30.8822 15.5696 32.1514 15.9926C32.3206 14.8927 32.5744 14.385 32.7437 13.9619H32.4052C31.6437 13.9619 30.9668 14.9773 30.9668 14.9773L31.136 14.0465H29.4437L28.3438 20.8156H30.2899Z" fill="white"/>
<path d="M41.1222 13.793C39.9376 13.793 39.0069 14.1314 39.0069 14.1314L38.753 15.6545C38.753 15.6545 39.5145 15.316 40.6991 15.316C41.2914 15.316 41.7991 15.4006 41.7991 15.9083C41.7991 16.2468 41.7145 16.3314 41.7145 16.3314H40.953C39.4299 16.3314 37.8223 16.9237 37.8223 18.9544C37.8223 20.5621 38.8376 20.9005 39.5145 20.9005C40.6991 20.9005 41.2914 20.139 41.376 20.139L41.2914 20.8159H42.8991L43.576 15.9929C43.576 13.8776 41.7145 13.793 41.1222 13.793ZM41.5453 17.6852C41.5453 17.939 41.376 19.3775 40.3607 19.3775C39.853 19.3775 39.6838 18.9544 39.6838 18.7006C39.6838 18.2775 39.9376 17.6852 41.2914 17.6852C41.4607 17.6852 41.4607 17.6852 41.5453 17.6852Z" fill="white"/>
<path d="M44.9305 20.8156C45.4382 17.9388 45.5228 15.5696 46.792 15.9926C46.9612 14.8927 47.2151 14.385 47.3843 13.9619H47.0458C46.2843 13.9619 45.6074 14.9773 45.6074 14.9773L45.7766 14.0465H44.0844L42.9844 20.8156H44.9305Z" fill="white"/>
</svg>
