<svg width="85" height="25" viewBox="0 0 85 25" fill="none" xmlns="http://www.w3.org/2000/svg">
<path fill-rule="evenodd" clip-rule="evenodd" d="M3.22958 9.13787C3.0518 9.5823 2.96291 10.0564 2.8444 10.5304C2.54811 11.9526 2.31107 13.4637 1.98515 14.8859C1.33331 14.8859 0.651842 14.8859 0 14.8859C0.740729 10.086 2.10367 5.40459 2.69625 0.249117C3.34809 0.249117 3.99993 0.249117 4.62215 0.249117C4.53326 0.723183 4.41474 1.16762 4.35549 1.64169C4.35549 1.67132 4.29623 1.70095 4.29623 1.7602C5.1851 0.604666 6.54804 -0.19532 8.71097 0.0417136C10.8443 0.249118 11.9998 1.93798 12.0887 3.92313C12.2961 7.71567 10.2813 11.1526 6.13324 10.8564C4.77029 10.7675 3.73327 10.2638 3.22958 9.13787ZM6.01472 1.93798C4.2666 2.82686 2.57774 6.91568 4.56289 8.6638C5.86657 9.81934 7.91098 9.19712 8.77023 8.13047C9.74799 6.91568 10.6369 3.41944 9.15541 2.17501C8.65171 1.7602 7.85173 1.61206 7.111 1.70095C6.57767 1.73058 6.31101 1.78983 6.01472 1.93798Z" fill="#030000"/>
<path fill-rule="evenodd" clip-rule="evenodd" d="M21.2422 10.6491C20.62 10.6491 19.9978 10.6491 19.3459 10.6491C19.4348 10.0565 19.5533 9.49351 19.6719 8.93056C19.1089 9.76017 18.1311 10.7083 16.7089 10.8565C14.6645 11.0639 12.7979 10.0268 12.6201 8.33797C12.5609 7.77502 12.5905 6.85652 13.0646 6.14542C14.2497 4.27878 17.3312 4.16027 20.383 4.24915C21.3015 0.871429 16.383 1.37512 14.6942 2.4714C14.783 1.81956 14.9312 1.19735 15.0201 0.545506C18.0719 -0.402627 22.1903 -0.165592 22.4274 3.12324C22.5163 4.42693 22.1311 5.70098 21.894 6.94541C21.657 8.1602 21.42 9.34537 21.2422 10.6491ZM14.783 7.9528C14.8423 8.81205 15.7904 9.28611 16.5608 9.28611C18.6645 9.31574 19.6719 7.47873 19.9978 5.67135C17.6274 5.55283 14.6349 5.84913 14.783 7.9528Z" fill="#030000"/>
<path fill-rule="evenodd" clip-rule="evenodd" d="M25.8102 0.277832C26.2546 3.03334 26.788 5.69997 27.2028 8.51474C28.7731 5.81849 30.2249 3.00371 31.7657 0.277832C32.4768 0.277832 33.1879 0.277832 33.9286 0.277832C32.0323 3.71481 29.8101 7.47772 27.6768 11.0925C27.025 12.2184 26.3731 13.7295 25.425 14.4702C24.5954 15.122 22.9954 15.2702 21.6621 15.0035C21.6917 14.4109 21.8991 13.9665 21.9288 13.4036C22.1954 13.3739 22.5214 13.5517 22.8473 13.5517C24.2991 13.5517 25.0991 12.2184 25.6324 11.1814C25.0102 7.59624 24.3287 4.04074 23.7065 0.425978C23.6473 0.36672 23.6769 0.33709 23.7065 0.277832C24.4176 0.277832 25.1287 0.277832 25.8102 0.277832Z" fill="#030000"/>
<path fill-rule="evenodd" clip-rule="evenodd" d="M34.7842 16.7238C34.3397 19.2423 33.7768 21.6126 33.3323 24.1311C31.9398 24.1311 30.5472 24.1311 29.125 24.1311C29.7768 21.0496 30.3398 17.9978 30.962 14.946C31.5842 11.9238 32.3249 8.90168 32.6805 5.70173C33.8064 5.61284 35.3175 5.61284 36.4434 5.70173C36.4138 6.41283 36.236 7.00541 36.1767 7.68688C37.273 6.5906 38.4582 5.13877 40.9767 5.3758C43.3766 5.61284 44.7099 7.62762 44.8877 10.1757C45.2136 14.5608 43.0803 18.8571 39.2285 19.1534C36.8286 19.3311 35.7027 18.2349 34.7842 16.7238ZM36.473 10.1757C35.4953 11.5683 35.1694 14.2349 36.4138 15.2719C37.1841 15.9238 38.6063 15.5979 39.2582 15.0645C40.0878 14.3831 40.6804 13.0794 40.6507 11.4498C40.6211 9.96832 39.9693 8.7239 38.3989 8.9313C37.4804 9.04982 36.9175 9.52389 36.473 10.1757Z" fill="#009651"/>
<path fill-rule="evenodd" clip-rule="evenodd" d="M56.4148 18.8881C55.3185 18.8585 54.0741 18.9474 53.0667 18.8288C53.1852 18.2363 53.1852 17.4955 53.2741 16.9029C52.9482 17.2289 52.7112 17.7029 52.2963 18.0881C50.9334 19.3325 47.8816 19.5992 46.3705 18.3548C44.7409 16.9918 45.0076 13.7326 46.3705 12.3401C47.9409 10.7105 50.9038 10.2956 53.9556 10.6216C54.2519 9.37714 53.4223 8.60678 52.3852 8.45864C50.8742 8.25124 48.8594 8.90308 47.9705 9.4364C48.1483 8.36975 48.2075 7.21421 48.4149 6.14756C49.4816 5.76238 50.489 5.46609 51.763 5.40683C55.2889 5.1698 57.7185 6.35497 57.9555 9.37714C58.074 10.9771 57.6 12.6363 57.2444 14.2067C56.9185 15.7474 56.6815 17.3178 56.4148 18.8881ZM52.1778 12.9623C50.9038 12.9919 49.5112 13.4067 49.2149 14.3548C48.9779 15.1845 49.5705 15.9548 50.1927 16.0733C52.1482 16.4881 53.4815 14.5622 53.6297 13.0215C53.1852 12.9326 52.5334 12.9623 52.1778 12.9623Z" fill="#009651"/>
<path fill-rule="evenodd" clip-rule="evenodd" d="M69.3337 6.14475C69.1263 7.2114 68.7411 8.10027 68.5337 9.16692C67.4967 8.81137 66.2522 8.27805 64.6226 8.45582C63.9708 8.54471 63.319 8.87063 63.319 9.52247C63.3486 10.3225 64.5634 10.6188 65.3041 10.915C66.3411 11.3595 67.5856 11.9521 68.0892 12.8409C68.9485 14.3817 68.0892 16.6335 67.1707 17.5816C66.4004 18.3816 64.9486 19.0334 63.4671 19.1519C61.5412 19.3001 59.5264 18.9445 57.8672 18.5001C58.1042 17.4038 58.3709 16.3964 58.6672 15.389C59.7634 15.8335 61.0079 16.2483 62.6967 16.1001C63.4967 16.0113 64.3856 15.7446 64.2671 14.7965C64.1782 14.0261 63.0227 13.7594 62.1634 13.4039C60.5634 12.752 59.3783 11.9224 59.3783 9.7595C59.3783 5.31513 65.5411 4.5744 69.3337 6.14475Z" fill="#009651"/>
<path fill-rule="evenodd" clip-rule="evenodd" d="M79.8223 6.14634C79.5853 7.18336 79.2593 8.16112 78.963 9.16851C77.9853 8.78333 76.7112 8.27964 75.0816 8.45742C74.4298 8.51667 73.7779 8.84259 73.7779 9.52406C73.8076 10.3537 75.289 10.7981 75.9705 11.0944C77.3631 11.687 78.6964 12.3388 78.8742 13.9388C79.0519 15.5092 78.4001 16.7832 77.4816 17.6425C76.6223 18.4721 75.3483 19.035 73.9261 19.1535C71.9706 19.3017 70.0743 18.9461 68.3262 18.5017C68.5039 17.3758 68.8595 16.4573 69.0669 15.3906C69.8669 15.6277 70.6372 16.0129 71.5854 16.1017C72.9187 16.2203 74.7261 16.1314 74.6964 14.9758C74.6668 13.7314 72.0891 13.4647 71.0817 12.6648C69.9854 11.8055 69.3039 9.70184 70.1632 7.98335C71.5854 5.31672 76.4742 4.72414 79.8223 6.14634Z" fill="#009651"/>
<path d="M81.3927 7.50721H80.8594L80.889 7.2998H82.1927L82.1631 7.50721H81.6297L81.3334 9.13682H81.0964L81.3927 7.50721Z" fill="#009651"/>
<path d="M83.5863 9.13682L83.7048 8.15905C83.7344 7.98128 83.7641 7.71461 83.7937 7.53684C83.7048 7.71461 83.6159 7.95165 83.4974 8.12942L82.9641 9.13682H82.7863L82.6382 8.15905C82.6085 7.95165 82.5789 7.74424 82.5789 7.53684C82.5493 7.71461 82.49 7.98128 82.4308 8.15905L82.1937 9.13682H81.9863L82.4604 7.2998H82.7567L82.9048 8.33683C82.9345 8.48497 82.9345 8.66275 82.9345 8.81089C82.9937 8.66275 83.0826 8.5146 83.1419 8.36646L83.7048 7.2998H84.0011L83.7641 9.13682H83.5863Z" fill="#009651"/>
</svg>
