<svg width="14" height="14" viewBox="0 0 14 14" fill="none" xmlns="http://www.w3.org/2000/svg">
<path fill-rule="evenodd" clip-rule="evenodd" d="M14 7C14 10.866 10.866 14 7 14C3.13401 14 0 10.866 0 7C0 3.13401 3.13401 0 7 0C10.866 0 14 3.13401 14 7ZM7.77821 11.6684C7.77821 12.098 7.42999 12.4462 7.00043 12.4462C6.57088 12.4462 6.22266 12.098 6.22266 11.6684C6.22266 11.2388 6.57088 10.8906 7.00043 10.8906C7.42999 10.8906 7.77821 11.2388 7.77821 11.6684ZM7.0013 1.33203C5.16035 1.33203 3.66797 2.82442 3.66797 4.66536H5.66797C5.66797 3.92899 6.26492 3.33203 7.0013 3.33203H7.07465C7.77052 3.33203 8.33464 3.89615 8.33464 4.59202V4.99115C8.33464 5.29512 8.14012 5.565 7.85174 5.66113C6.74668 6.02948 6.0013 7.06363 6.0013 8.22847V10.1098H8.0013V8.22847C8.0013 7.92449 8.19582 7.65462 8.4842 7.55849C9.58926 7.19014 10.3346 6.15599 10.3346 4.99115V4.59202C10.3346 2.79158 8.87509 1.33203 7.07465 1.33203H7.0013Z" fill="#898989"/>
</svg>
