<svg width="69" height="29" viewBox="0 0 69 29" fill="none" xmlns="http://www.w3.org/2000/svg">
<path d="M4.84917 11.3638C4.84917 10.6088 5.4625 10.3184 6.47833 10.3184C7.935 10.3184 9.775 10.7637 11.2317 11.5574V7.00801C9.64083 6.36916 8.06917 6.11749 6.47833 6.11749C2.5875 6.11749 0 8.16956 0 11.5961C0 16.9393 7.28333 16.0875 7.28333 18.3912C7.28333 19.2817 6.51667 19.5721 5.44333 19.5721C3.8525 19.5721 1.82083 18.9139 0.210833 18.0234V22.6308C1.99333 23.4052 3.795 23.7343 5.44333 23.7343C9.43 23.7343 12.1708 21.7403 12.1708 18.275C12.1517 12.506 4.84917 13.532 4.84917 11.3638ZM17.8058 2.24566L13.1292 3.25234L13.11 18.759C13.11 21.6242 15.2375 23.7343 18.0742 23.7343C19.6458 23.7343 20.7958 23.4439 21.4283 23.0955V19.1656C20.815 19.4172 17.7867 20.3077 17.7867 17.4426V10.5701H21.4283V6.4466H17.7867L17.8058 2.24566ZM27.3892 7.87917L27.0825 6.4466H22.9425V23.3858H27.7342V11.9059C28.865 10.4152 30.7817 10.6862 31.3758 10.8992V6.4466C30.7625 6.21429 28.52 5.78838 27.3892 7.87917ZM32.545 6.4466H37.3558V23.3858H32.545V6.4466ZM32.545 4.9753L37.3558 3.92991V0L32.545 1.02603V4.9753ZM47.3608 6.11749C45.4825 6.11749 44.275 7.00801 43.6042 7.6275L43.355 6.42724H39.1383V29L43.93 27.974L43.9492 22.4953C44.6392 22.9987 45.655 23.715 47.3417 23.715C50.7725 23.715 53.8967 20.9272 53.8967 14.7904C53.8775 9.17624 50.715 6.11749 47.3608 6.11749ZM46.2108 19.4559C45.08 19.4559 44.4092 19.0494 43.9492 18.5461L43.93 11.3638C44.4283 10.8024 45.1183 10.4152 46.2108 10.4152C47.955 10.4152 49.1625 12.3899 49.1625 14.9259C49.1625 17.52 47.9742 19.4559 46.2108 19.4559ZM69 14.984C69 10.028 66.6233 6.11749 62.0808 6.11749C57.5192 6.11749 54.7592 10.028 54.7592 14.9453C54.7592 20.7724 58.0175 23.715 62.6942 23.715C64.975 23.715 66.7 23.1923 68.0033 22.4566V18.5848C66.7 19.243 65.205 19.6495 63.3075 19.6495C61.4483 19.6495 59.8 18.9913 59.5892 16.7069H68.9617C68.9617 16.4553 69 15.4486 69 14.984ZM59.5317 13.1449C59.5317 10.9573 60.8542 10.0474 62.0617 10.0474C63.2308 10.0474 64.4767 10.9573 64.4767 13.1449H59.5317Z" fill="#6772E5"/>
</svg>
