<svg width="72" height="22" viewBox="0 0 72 22" fill="none" xmlns="http://www.w3.org/2000/svg">
<path d="M66.8365 0.312988H62.3317C60.9698 0.312988 59.9222 0.732036 59.2936 2.09394L50.7031 21.6844H56.7793C56.7793 21.6844 57.8269 19.0654 58.0365 18.4368C58.665 18.4368 64.6365 18.4368 65.4746 18.4368C65.6841 19.1701 66.2079 21.5797 66.2079 21.5797H71.6555L66.8365 0.312988ZM59.7126 14.0368C60.2365 12.7797 62.0174 8.06537 62.0174 8.06537C62.0174 8.17013 62.5412 6.80823 62.7507 6.07489L63.1698 7.96061C63.1698 7.96061 64.3222 13.0939 64.5317 14.1416H59.7126V14.0368Z" fill="#3362AB"/>
<path d="M51.1239 14.6667C51.1239 19.0667 47.143 22 40.962 22C38.343 22 35.8287 21.4762 34.4668 20.8476L35.3049 16.0286L36.0382 16.3429C37.9239 17.181 39.1811 17.4952 41.4858 17.4952C43.162 17.4952 44.943 16.8667 44.943 15.4C44.943 14.4571 44.2097 13.8286 41.9049 12.781C39.7049 11.7333 36.7716 10.0571 36.7716 7.01905C36.7716 2.82857 40.8573 0 46.6192 0C48.8192 0 50.7049 0.419048 51.8573 0.942857L51.0192 5.55238L50.6001 5.13333C49.5525 4.71429 48.1906 4.29524 46.2001 4.29524C44.0001 4.4 42.9525 5.34286 42.9525 6.18095C42.9525 7.12381 44.2096 7.85714 46.2001 8.8C49.5525 10.3714 51.1239 12.1524 51.1239 14.6667Z" fill="#3362AB"/>
<path d="M0 0.522563L0.104762 0.103516H9.11428C10.3714 0.103516 11.3143 0.522563 11.6286 1.88447L13.619 11.313C11.6286 6.28447 7.01905 2.19875 0 0.522563Z" fill="#F9B50B"/>
<path d="M26.297 0.314235L17.1827 21.5809H11.0018L5.76367 3.77138C9.5351 6.1809 12.678 9.95233 13.8303 12.5714L14.4589 14.7714L20.1161 0.209473H26.297V0.314235Z" fill="#3362AB"/>
<path d="M28.7057 0.209473H34.4676L30.801 21.5809H25.0391L28.7057 0.209473Z" fill="#3362AB"/>
</svg>
