<svg width="97" height="30" viewBox="0 0 97 30" fill="none" xmlns="http://www.w3.org/2000/svg">
<path d="M89.8071 0.419922H83.7541C81.9241 0.419922 80.5164 0.982992 79.6718 2.81297L68.1289 29.1365H76.2934C76.2934 29.1365 77.7011 25.6173 77.9826 24.7727C78.8272 24.7727 86.851 24.7727 87.9771 24.7727C88.2586 25.7581 88.9625 28.9957 88.9625 28.9957H96.2824L89.8071 0.419922ZM80.2349 18.8605C80.9387 17.1712 83.3318 10.8367 83.3318 10.8367C83.3318 10.9775 84.0356 9.1475 84.3172 8.16213L84.8802 10.6959C84.8802 10.6959 86.4287 17.5935 86.7102 19.0012H80.2349V18.8605Z" fill="#3362AB"/>
<path d="M68.6945 19.7074C68.6945 25.6197 63.3454 29.5612 55.0401 29.5612C51.5209 29.5612 48.1425 28.8573 46.3125 28.0127L47.4386 21.5374L48.424 21.9597C50.9578 23.0859 52.647 23.5082 55.7439 23.5082C57.9962 23.5082 60.3892 22.6636 60.3892 20.6928C60.3892 19.4259 59.4039 18.5813 56.307 17.1736C53.3509 15.766 49.4094 13.5137 49.4094 9.43142C49.4094 3.80072 54.8993 0 62.6415 0C65.5976 0 68.1315 0.56307 69.6799 1.26691L68.5538 7.46067L67.9907 6.8976C66.583 6.33454 64.753 5.77146 62.0784 5.77146C59.1223 5.91223 57.7147 7.17914 57.7147 8.30528C57.7147 9.57219 59.4039 10.5576 62.0784 11.8245C66.583 13.936 68.6945 16.329 68.6945 19.7074Z" fill="#3362AB"/>
<path d="M0 0.701742L0.140767 0.138672H12.2468C13.936 0.138672 15.2029 0.701742 15.6252 2.53172L18.2998 15.2008C15.6252 8.44395 9.43142 2.95402 0 0.701742Z" fill="#F9B50B"/>
<path d="M35.3346 0.422017L23.0878 28.9978H14.7825L7.74414 5.06734C12.8118 8.30499 17.0348 13.3726 18.5832 16.8918L19.4278 19.8479L27.0293 0.28125H35.3346V0.422017Z" fill="#3362AB"/>
<path d="M38.5714 0.28125H46.3136L41.3867 28.9978H33.6445L38.5714 0.28125Z" fill="#3362AB"/>
</svg>
