<svg width="124" height="30" viewBox="0 0 124 30" fill="none" xmlns="http://www.w3.org/2000/svg">
<path d="M47.4115 12.8546C47.0941 15.2353 45.1895 15.2353 43.4436 15.2353H42.4913L43.2849 10.6325C43.2849 10.3151 43.6023 10.1564 43.9197 10.1564H44.3959C45.6657 10.1564 46.7767 10.1564 47.4115 10.7912C47.4115 11.4261 47.4115 12.061 47.4115 12.8546ZM46.618 6.50586H39.7931C39.3169 6.50586 38.9995 6.82329 38.8408 7.29945L36.1426 24.7584C36.1426 25.0758 36.3013 25.3933 36.7775 25.3933H39.9518C40.428 25.3933 40.7454 25.0758 40.9041 24.5997L41.6977 19.8382C41.6977 19.362 42.1739 19.0446 42.65 19.0446H44.8721C49.3162 19.0446 51.8556 16.8225 52.6492 12.5371C52.9667 10.6325 52.6492 9.20406 51.8556 8.09304C50.5859 7.14073 48.84 6.50586 46.618 6.50586Z" fill="#263577"/>
<path d="M62.3288 19.2052C62.0113 21.1098 60.5829 22.3796 58.6783 22.3796C57.726 22.3796 56.9324 22.0621 56.4563 21.4273C55.9801 20.7924 55.8214 19.9988 55.9801 19.2052C56.2975 17.3006 57.726 16.0309 59.6306 16.0309C60.5829 16.0309 61.3765 16.3483 61.8527 16.9832C62.1701 17.4593 62.4875 18.2529 62.3288 19.2052ZM66.7729 12.8565H63.5986C63.2811 12.8565 63.1224 13.0152 62.9636 13.3327L62.805 14.285L62.6462 13.9675C62.0114 13.0152 60.4242 12.5391 58.837 12.5391C55.1865 12.5391 52.1709 15.2373 51.536 19.0465C51.2186 20.9511 51.6947 22.697 52.8057 23.9667C53.758 25.0778 55.1865 25.5539 56.9324 25.5539C59.7893 25.5539 61.3765 23.6493 61.3765 23.6493L61.2178 24.6016C61.2178 24.9191 61.3765 25.2365 61.8527 25.2365H64.7096C65.1857 25.2365 65.5031 24.9191 65.6619 24.4429L67.4078 13.3327C67.4078 13.1739 67.2491 12.8565 66.7729 12.8565Z" fill="#263577"/>
<path d="M84.0735 12.8574H80.7404C80.423 12.8574 80.1056 13.0161 79.9469 13.3336L75.5028 19.9997L73.5981 13.651C73.4394 13.1749 73.122 13.0161 72.6458 13.0161H69.4715C69.154 13.0161 68.8366 13.3336 68.9953 13.8097L72.6458 24.2851L69.3127 29.0466C68.9953 29.3641 69.3128 29.9989 69.7889 29.9989H73.122C73.4395 29.9989 73.7569 29.8402 73.9156 29.5228L84.7084 13.8097C84.8671 13.3336 84.5497 12.8574 84.0735 12.8574Z" fill="#263577"/>
<path d="M95.6635 12.8546C95.3461 15.2353 93.4415 15.2353 91.6956 15.2353H90.7432L91.5368 10.6325C91.5368 10.3151 91.8543 10.1564 92.1717 10.1564H92.6479C93.9176 10.1564 95.0286 10.1564 95.6635 10.7912C95.8222 11.4261 95.8222 12.061 95.6635 12.8546ZM94.8699 6.50586H88.0451C87.5689 6.50586 87.2515 6.82329 87.0928 7.29945L84.3945 24.7584C84.3945 25.0758 84.5533 25.3933 85.0294 25.3933H88.5212C88.8386 25.3933 89.1561 25.2346 89.1561 24.7584L89.9497 19.8382C89.9497 19.362 90.4258 19.0446 90.902 19.0446H93.124C97.5681 19.0446 100.108 16.8225 100.901 12.5371C101.219 10.6325 100.901 9.20406 100.108 8.09304C98.9966 7.14073 97.2507 6.50586 94.8699 6.50586Z" fill="#2199D6"/>
<path d="M110.737 19.2052C110.42 21.1098 108.991 22.3796 107.086 22.3796C106.134 22.3796 105.341 22.0621 104.864 21.4273C104.388 20.7924 104.23 19.9988 104.388 19.2052C104.706 17.3006 106.134 16.0309 108.039 16.0309C108.991 16.0309 109.785 16.3483 110.261 16.9832C110.578 17.4593 110.896 18.2529 110.737 19.2052ZM115.181 12.8565H112.007C111.689 12.8565 111.531 13.0152 111.372 13.3327L111.213 14.285L111.054 13.9675C110.42 13.0152 108.832 12.5391 107.245 12.5391C103.595 12.5391 100.579 15.2373 99.9442 19.0465C99.6268 20.9511 100.103 22.697 101.214 23.9667C102.166 25.0778 103.595 25.5539 105.341 25.5539C108.198 25.5539 109.785 23.6493 109.785 23.6493L109.626 24.6016C109.626 24.9191 109.785 25.2365 110.261 25.2365H113.118C113.594 25.2365 113.911 24.9191 114.07 24.4429L115.816 13.3327C115.816 13.1739 115.499 12.8565 115.181 12.8565Z" fill="#2199D6"/>
<path d="M118.992 6.98201L116.135 24.7584C116.135 25.0758 116.294 25.3933 116.77 25.3933H119.627C120.103 25.3933 120.42 25.0758 120.579 24.5997L123.277 7.14073C123.277 6.8233 123.118 6.50586 122.642 6.50586H119.468C119.309 6.50586 119.15 6.82329 118.992 6.98201Z" fill="#2199D6"/>
<path d="M7.89118 28.7268L8.36731 25.3937H7.25629H1.70117L5.51041 1.10989C5.51041 1.10989 5.5104 0.951172 5.66912 0.951172H5.82784H15.1922C18.2078 0.951172 20.4299 1.58604 21.5409 2.85579C22.017 3.49066 22.3345 4.12553 22.4932 4.7604C22.6519 5.55399 22.6519 6.34757 22.4932 7.4586V8.09347L22.9694 8.41091C23.4455 8.56963 23.763 8.88706 24.0804 9.2045C24.5565 9.68065 24.874 10.3155 24.874 11.1091C25.0327 11.9027 25.0327 12.855 24.7152 13.966C24.3978 15.2358 24.0804 16.1881 23.6042 17.1404C23.1281 17.934 22.4932 18.5688 21.8583 19.2037C21.2235 19.6799 20.2711 19.9973 19.4776 20.3147C18.5252 20.4734 17.573 20.6322 16.4619 20.6322H15.6683C15.1922 20.6322 14.716 20.7909 14.2399 21.1083C13.9225 21.4258 13.605 21.9019 13.4463 22.3781V22.6955L12.494 28.5681V28.7268V28.8855C12.494 28.8855 12.494 28.8855 12.3353 28.8855H7.89118V28.7268Z" fill="#263577"/>
<path d="M23.6029 7.46094C23.6029 7.61966 23.6029 7.77838 23.4441 7.9371C22.1744 14.2858 18.0478 16.3491 12.6513 16.3491H9.95313C9.31826 16.3491 8.6834 16.8253 8.6834 17.4602L7.25493 26.3483L6.9375 28.8878C6.9375 29.364 7.25493 29.6814 7.57236 29.6814H12.4926C13.1275 29.6814 13.6036 29.2053 13.6036 28.7291V28.4117L14.556 22.6978V22.3804C14.7147 21.7455 15.1908 21.4281 15.667 21.4281H16.4606C21.2221 21.4281 24.8726 19.5235 25.8249 13.9684C26.3011 11.5876 25.9836 9.68299 24.8726 8.41325C24.5552 8.09581 24.079 7.77837 23.6029 7.46094Z" fill="#2199D6"/>
<path d="M22.3333 6.98201C22.1746 6.98201 22.0159 6.8233 21.6984 6.8233C21.5397 6.8233 21.2223 6.66457 21.0636 6.66457C20.27 6.50586 19.4764 6.50586 18.6828 6.50586H11.3818C11.2231 6.50586 11.0644 6.50586 10.9056 6.66457C10.5882 6.82329 10.2708 7.14073 10.2708 7.45816L8.68359 17.2987V17.6161C8.84231 16.9812 9.31845 16.5051 9.95332 16.5051H12.6515C18.0479 16.5051 22.1746 14.283 23.4443 8.09304C23.4443 7.93432 23.4443 7.7756 23.6031 7.61688C23.2856 7.45817 22.9682 7.29945 22.6507 7.14073C22.492 6.98201 22.3333 6.98201 22.3333 6.98201Z" fill="#252C5E"/>
<path d="M10.2731 7.45973C10.2731 7.14229 10.5905 6.82486 10.9079 6.66614C11.0666 6.66614 11.2254 6.50742 11.3841 6.50742H18.6851C19.4787 6.50742 20.431 6.50742 21.0659 6.66614C21.2246 6.66614 21.542 6.66614 21.7007 6.82486C21.8595 6.82486 22.0182 6.98358 22.3356 6.98358C22.4943 6.98358 22.4943 6.98358 22.653 7.1423C22.9705 7.30102 23.2879 7.45973 23.6053 7.61845C23.9228 5.23768 23.6053 3.6505 22.3356 2.22204C20.9071 0.634867 18.3677 0 15.1933 0H5.82896C5.19409 0 4.55922 0.476148 4.55922 1.11102L0.75 25.5536C0.75 26.0297 1.06744 26.5059 1.54359 26.5059H7.25741L8.68589 17.3002L10.2731 7.45973Z" fill="#263577"/>
</svg>
